<svg xmlns="http://www.w3.org/2000/svg" xmlns:xlink="http://www.w3.org/1999/xlink" version="1.1" x="0px" y="0px" viewBox="0 0 60.958 279.37375" style="enable-background:new 0 0 60.958 223.499;" xml:space="preserve"><g><path d="M11.584,108.348c-2.067-8.545-3.599-17.729-3.582-25.986c-0.014-6.611,0.992-12.515,3.153-17.003   c1.916,10.209,4.813,27.514,4.249,36.167c-0.003,0.045-0.004,0.096-0.007,0.141c-0.727,10.364-8,12.222-8,28.333   c0,9.881,1.973,16.749,3.5,20.594v64.906c0,4.419,3.58,7.999,8,7.999c4.418,0,8-3.58,8-7.999v-79.613c0,0,0.75-1.915,3.584-1.915   c2.834,0,3.582,1.916,3.582,1.916v79.613c0,4.417,3.58,7.999,8,7.999c4.418,0,8-3.583,8-7.999v-64.903   c1.527-3.845,3.5-10.714,3.5-20.597c0-16.111-7.273-17.969-8-28.333c-0.003-0.045-0.004-0.095-0.007-0.141   c-0.562-8.652,2.334-25.952,4.25-36.162c2.16,4.487,3.165,10.39,3.149,16.998c0.017,8.256-1.514,17.438-3.58,25.982   c0.429,0.93,0.901,1.845,1.4,2.8c1.317,2.516,2.733,5.238,3.683,9.018c3.374-11.255,6.477-25.068,6.499-37.8   c-0.02-9.079-1.561-17.771-6.361-24.578c-4.787-6.854-13.061-11.082-24.115-11c-11.056-0.082-19.33,4.146-24.117,11.002   C1.561,64.59,0.02,73.282,0,82.361c0.023,12.731,3.127,26.543,6.502,37.798c0.948-3.779,2.366-6.501,3.683-9.018   C10.684,110.189,11.156,109.276,11.584,108.348z"/><path d="M30.481,43.789c9.572,0,17.332-13.071,17.332-25.164S40.054,0,30.481,0c-9.572,0-17.334,6.533-17.334,18.625   S20.909,43.789,30.481,43.789z"/></g><text x="0" y="238.499" fill="#000000" font-size="5px" font-weight="bold" font-family="'Helvetica Neue', Helvetica, Arial-Unicode, Arial, Sans-serif">Created by Gan Khoon Lay</text><text x="0" y="243.499" fill="#000000" font-size="5px" font-weight="bold" font-family="'Helvetica Neue', Helvetica, Arial-Unicode, Arial, Sans-serif">from the Noun Project</text></svg>