<svg xmlns="http://www.w3.org/2000/svg" xmlns:xlink="http://www.w3.org/1999/xlink" version="1.1" x="0px" y="0px" viewBox="0 0 81.688 283.34625" style="enable-background:new 0 0 81.688 226.677;" xml:space="preserve"><g><ellipse transform="matrix(0.2268 -0.9739 0.9739 0.2268 11.1307 56.0192)" cx="40.846" cy="21" rx="20.995" ry="20.995"/><path d="M62.641,52.327c-5.831-3.822-13.186-5.868-21.796-5.852c-8.61-0.016-15.964,2.03-21.796,5.852   C10.243,58.087,5.528,67.23,3.034,76.768C0.521,86.373,0.01,96.761,0,106.548c0.002,8.703,0.432,16.949,0.428,23.426   c0,3.591,2.911,6.502,6.501,6.502c3.589,0,6.5-2.91,6.5-6.502c-0.004-7.002-0.429-15.142-0.427-23.426   c-0.026-7.408,0.366-14.909,1.547-21.571c-1.128-1.89-1.788-4.092-1.788-6.453c0-1.413,0.242-2.767,0.67-4.035   c-0.042,0.43-0.066,0.865-0.066,1.306c0,7.249,5.876,13.125,13.125,13.125c4.18,0,7.895-1.96,10.298-5.003   c-2.024,4.271-6.362,7.232-11.402,7.232c-1.638,0-3.198-0.322-4.634-0.89c0.236,2.55,0.299,4.906,0.114,6.903   c-0.962,10.364-4.536,11.05-5.794,20.761c-0.349,1.272-0.546,3.17-0.546,5.906c0,17.755,4.377,22.849,4.653,39.504v53.345   c0,5.524,4.477,10,10,10c5.521,0,10-4.476,10-10v-82c0-0.174-0.017-0.344-0.026-0.516h3.385c-0.009,0.172-0.026,0.341-0.026,0.516   v82c0,5.524,4.477,10,10,10c5.52,0,10-4.476,10-10v-53.345c0.276-16.655,4.652-21.748,4.652-39.504   c0-2.734-0.196-4.631-0.544-5.903c-1.257-9.714-4.834-10.398-5.795-20.764c-0.196-2.116-0.11-4.639,0.161-7.366   c-1.704,0.858-3.624,1.353-5.663,1.353c-5.042,0-9.38-2.962-11.404-7.235c2.403,3.045,6.119,5.006,10.3,5.006   c7.248,0,13.125-5.876,13.125-13.125c0-0.44-0.023-0.874-0.066-1.303c0.428,1.268,0.669,2.621,0.669,4.032   c0,1.804-0.385,3.516-1.066,5.068c1.395,6.998,1.814,15.031,1.805,22.959c0.004,8.286-0.421,16.424-0.425,23.424   c0,3.591,2.911,6.502,6.502,6.502c3.589,0,6.499-2.91,6.499-6.502c-0.004-6.478,0.423-14.723,0.425-23.424   c-0.044-13.05-0.847-27.17-6.338-39.075C72.594,61.545,68.482,56.131,62.641,52.327z"/></g><text x="0" y="241.677" fill="#000000" font-size="5px" font-weight="bold" font-family="'Helvetica Neue', Helvetica, Arial-Unicode, Arial, Sans-serif">Created by Gan Khoon Lay</text><text x="0" y="246.677" fill="#000000" font-size="5px" font-weight="bold" font-family="'Helvetica Neue', Helvetica, Arial-Unicode, Arial, Sans-serif">from the Noun Project</text></svg>