<svg xmlns="http://www.w3.org/2000/svg" xmlns:xlink="http://www.w3.org/1999/xlink" version="1.1" x="0px" y="0px" viewBox="0 0 107.218 275.98125" style="enable-background:new 0 0 107.218 220.785;" xml:space="preserve"><g><path d="M19.053,98.431c0.018-0.101,0.035-0.198,0.053-0.298c-2.707-3.105-4.357-7.154-4.357-11.597   c0-1.977,0.339-3.873,0.938-5.648c-0.06,0.601-0.092,1.209-0.092,1.826c0,10.15,8.227,18.377,18.377,18.377   c5.855,0,11.059-2.748,14.424-7.013c-2.833,5.984-8.909,10.134-15.969,10.134c-4.544,0-8.674-1.729-11.805-4.545   c-3.651,6.089-5.763,13.261-5.763,20.943c0,7.638,2.085,13.612,5.697,18.161l8.032,72.739c0,5.123,5.131,9.275,11.459,9.275   s11.461-4.152,11.461-9.275v-60.678c0.695,0.018,1.396,0.028,2.102,0.028c0.703,0,1.404-0.01,2.1-0.028v60.678   c0,5.123,5.133,9.275,11.461,9.275c6.328,0,11.461-4.152,11.461-9.275l8.031-72.74c3.611-4.549,5.697-10.523,5.697-18.16   c0-7.793-2.177-15.059-5.926-21.204c-3.162,2.973-7.408,4.807-12.092,4.807c-7.06,0-13.137-4.149-15.97-10.134   c3.365,4.266,8.569,7.013,14.425,7.013c10.148,0,18.377-8.228,18.377-18.377c0-0.617-0.033-1.226-0.093-1.826   c0.6,1.775,0.938,3.671,0.938,5.648c0,4.239-1.495,8.127-3.983,11.172c0.042,0.24,0.085,0.476,0.127,0.72   c3.92,6.438,6.196,14.04,6.196,22.182c0,5.263-0.973,9.947-2.856,14.025c0.923,3.417,4.037,5.91,7.711,5.911   c0.073,0,0.146-0.001,0.22-0.003c4.418-0.119,7.9-3.796,7.781-8.212c-1.082-38.447-7.36-58.916-14.827-70.688   c-3.734-5.855-7.9-9.46-11.643-11.452c-3.737-2.01-6.911-2.351-8.409-2.343c-0.266,0-0.493,0.01-0.678,0.025   c-0.179,0.013-0.353,0.041-0.528,0.065c-0.106-0.005-0.212-0.016-0.319-0.016H53.61H36.406c-0.105,0-0.209,0.011-0.313,0.016   c-0.18-0.025-0.359-0.053-0.543-0.066c-0.182-0.012-0.407-0.022-0.67-0.022c-1.5-0.008-4.673,0.332-8.411,2.34   c-5.663,3.011-12.057,9.557-16.96,22.056c-4.941,12.545-8.714,31.233-9.506,60.084c-0.12,4.417,3.362,8.095,7.781,8.215   c0.072,0.002,0.146,0.003,0.218,0.003c3.674,0,6.789-2.494,7.713-5.912c-1.884-4.079-2.858-8.764-2.858-14.026   C12.858,112.469,15.133,104.869,19.053,98.431z"/><circle cx="53.609" cy="20.856" r="20.856"/></g><text x="0" y="235.785" fill="#000000" font-size="5px" font-weight="bold" font-family="'Helvetica Neue', Helvetica, Arial-Unicode, Arial, Sans-serif">Created by Gan Khoon Lay</text><text x="0" y="240.785" fill="#000000" font-size="5px" font-weight="bold" font-family="'Helvetica Neue', Helvetica, Arial-Unicode, Arial, Sans-serif">from the Noun Project</text></svg>