<svg xmlns="http://www.w3.org/2000/svg" xmlns:xlink="http://www.w3.org/1999/xlink" version="1.1" x="0px" y="0px" viewBox="0 0 170.919 290.96875" style="enable-background:new 0 0 170.919 232.775;" xml:space="preserve"><g><path d="M126.423,42.033c-4.869-2.11-9.275-3.464-12.783-4.332c-4.078,11.638-15.167,20.011-28.182,20.011   c-13.013,0-24.103-8.374-28.181-20.014c-6.225,1.531-15.288,4.606-24.651,10.771c-8.133,5.385-16.442,13.274-22.591,24.405   C3.867,83.993-0.015,98.202,0,115.638c0.002,6.117,0.47,12.645,1.465,19.613c0.785,5.485,5.489,9.444,10.875,9.444   c0.519,0,1.043-0.036,1.571-0.112c6.014-0.86,10.193-6.433,9.333-12.446c-0.86-6.02-1.244-11.504-1.242-16.499   c0.002-1.924,0.063-3.769,0.171-5.549c-3.361-6.216-4.466-13.67-2.529-21.044c0.825-3.14,2.144-6.017,3.84-8.582   c-0.352,0.941-0.66,1.908-0.92,2.9c-4.209,16.021,5.363,32.421,21.387,36.631c9.26,2.434,18.642,0.254,25.728-5.107   c-6.95,8.298-18.301,12.326-29.464,9.392c-5.986-1.573-11.031-4.921-14.732-9.325c0.189,18.373,4.941,32.437,12.604,42.66   l6.884,60.151c0,8.289,8.303,15.011,18.543,15.011c10.244,0,18.549-6.722,18.549-15.011v-38.424   c1.129,0.051,2.261,0.084,3.398,0.084c1.137,0,2.27-0.033,3.398-0.085v38.425c0,8.289,8.307,15.011,18.549,15.011   c10.238,0,18.545-6.722,18.545-15.011l6.884-60.154c7.662-10.225,12.413-24.287,12.602-42.659   c-3.701,4.405-8.747,7.754-14.734,9.327c-11.164,2.935-22.514-1.094-29.464-9.392c7.086,5.361,16.468,7.541,25.728,5.107   c16.023-4.21,25.596-20.61,21.387-36.631c-0.261-0.992-0.569-1.959-0.92-2.9c1.696,2.565,3.015,5.442,3.84,8.582   c1.938,7.374,0.833,14.828-2.529,21.045c0.108,1.78,0.171,3.623,0.173,5.548c0,4.995-0.384,10.481-1.242,16.501   c-0.86,6.014,3.319,11.586,9.335,12.444c0.527,0.075,1.051,0.111,1.568,0.111c5.386,0.001,10.094-3.959,10.877-9.446   c0.993-6.966,1.463-13.49,1.463-19.61c0.017-17.436-3.867-31.645-10.034-42.763C151.624,56.131,137.662,46.897,126.423,42.033z"/><circle cx="85.459" cy="27.855" r="27.857"/></g><text x="0" y="247.775" fill="#000000" font-size="5px" font-weight="bold" font-family="'Helvetica Neue', Helvetica, Arial-Unicode, Arial, Sans-serif">Created by Gan Khoon Lay</text><text x="0" y="252.775" fill="#000000" font-size="5px" font-weight="bold" font-family="'Helvetica Neue', Helvetica, Arial-Unicode, Arial, Sans-serif">from the Noun Project</text></svg>