<svg xmlns="http://www.w3.org/2000/svg" xmlns:xlink="http://www.w3.org/1999/xlink" version="1.1" x="0px" y="0px" viewBox="0 0 92.926 298.60125" style="enable-background:new 0 0 92.926 238.881;" xml:space="preserve"><g><ellipse transform="matrix(0.2268 -0.9739 0.9739 0.2268 14.0148 62.6529)" cx="46.466" cy="22.5" rx="22.495" ry="22.494"/><path d="M73.36,55.609c-2.826-1.719-5.535-2.347-7.53-2.495c-0.348-0.048-0.701-0.081-1.062-0.081H28.163   c-0.36,0-0.713,0.033-1.06,0.081c-1.996,0.147-4.705,0.776-7.535,2.495c-5.085,3.071-10.005,9.156-13.555,19.932   C2.442,86.372,0.01,102.165,0,126.067c0.002,5.641,0.139,11.732,0.435,18.318c0.168,3.752,3.267,6.685,6.988,6.686   c0.105,0,0.211-0.003,0.318-0.008c3.863-0.175,6.853-3.446,6.681-7.308c-0.291-6.393-0.421-12.274-0.421-17.688   c-0.032-25.916,3.108-41.009,6.433-49.232v52.319c0,0.036,0.005,0.072,0.005,0.108l-4.091,98.16   c-0.253,6.068,4.464,11.195,10.534,11.448c0.156,0.007,0.312,0.01,0.466,0.01c5.864,0,10.735-4.629,10.982-10.543l3.811-91.456   h8.647l3.811,91.456c0.247,5.913,5.119,10.543,10.982,10.543c0.155,0,0.31-0.003,0.466-0.01c6.07-0.253,10.787-5.38,10.533-11.448   l-4.09-98.149c0-0.04,0.006-0.079,0.006-0.119V76.871c0.747,1.844,1.489,4.021,2.186,6.612c2.411,8.92,4.249,22.516,4.245,42.584   c0,5.414-0.132,11.296-0.417,17.688c-0.174,3.861,2.817,7.133,6.679,7.308c0.106,0.005,0.212,0.008,0.318,0.008   c3.722,0,6.82-2.933,6.988-6.688c0.294-6.586,0.432-12.675,0.432-18.315c-0.038-31.861-4.27-49.345-9.974-59.799   C80.093,61.066,76.723,57.632,73.36,55.609z"/></g><text x="0" y="253.881" fill="#000000" font-size="5px" font-weight="bold" font-family="'Helvetica Neue', Helvetica, Arial-Unicode, Arial, Sans-serif">Created by Gan Khoon Lay</text><text x="0" y="258.881" fill="#000000" font-size="5px" font-weight="bold" font-family="'Helvetica Neue', Helvetica, Arial-Unicode, Arial, Sans-serif">from the Noun Project</text></svg>