<svg xmlns="http://www.w3.org/2000/svg" xmlns:xlink="http://www.w3.org/1999/xlink" version="1.1" x="0px" y="0px" viewBox="0 0 119.61 295.20875" style="enable-background:new 0 0 119.61 236.167;" xml:space="preserve"><g><path d="M8.188,46.779c6.872,5.925,15.832,8.926,23.188,10.836c2.428,0.614,4.677,1.084,6.615,1.443v64.55L26.702,225.06   c-0.611,5.488,3.344,10.435,8.83,11.046c5.488,0.609,10.436-3.346,11.047-8.834l10.607-95.324h5.24l10.607,95.324   c0.609,5.488,5.557,9.443,11.045,8.834c5.488-0.611,9.443-5.558,8.832-11.046L81.62,123.592V59.061   c3.894-0.719,9.065-1.903,14.369-3.786c5.337-1.921,10.857-4.52,15.434-8.496c4.548-3.896,8.228-9.754,8.187-16.874   c0-4.346-1.303-8.875-3.823-13.502c-2.528-4.642-6.273-9.456-11.46-14.647c-2.345-2.342-6.143-2.342-8.484,0.002   c-2.343,2.342-2.343,6.14,0,8.485c4.598,4.593,7.615,8.595,9.403,11.891c1.796,3.31,2.363,5.84,2.363,7.77   c-0.04,3.047-1.27,5.296-4.086,7.842c-4.175,3.736-11.781,6.648-18.233,8.237c-3.227,0.816-6.163,1.358-8.265,1.69   c-1.05,0.165-1.894,0.279-2.461,0.349c-0.302,0.038-0.507,0.062-0.639,0.076c-0.011,0-0.021-0.002-0.033-0.002H45.72   c-0.012,0-0.022,0.002-0.034,0.002c-0.044-0.005-0.098-0.011-0.163-0.019c-1.873-0.201-11.239-1.467-19.536-4.733   c-4.146-1.607-7.966-3.734-10.406-6.061c-2.46-2.397-3.539-4.506-3.579-7.381c0-1.931,0.567-4.46,2.363-7.77   c1.789-3.297,4.805-7.298,9.405-11.892c2.343-2.342,2.343-6.141,0.002-8.483c-2.344-2.345-6.144-2.345-8.485-0.002   C10.098,6.947,6.35,11.76,3.823,16.403C1.302,21.031,0,25.56,0,29.905C-0.04,37.024,3.64,42.884,8.188,46.779z"/><path d="M59.808,44.789c9.572,0,17.332-13.072,17.332-25.164S69.38,1,59.808,1c-9.572,0-17.334,6.533-17.334,18.625   S50.236,44.789,59.808,44.789z"/></g><text x="0" y="251.167" fill="#000000" font-size="5px" font-weight="bold" font-family="'Helvetica Neue', Helvetica, Arial-Unicode, Arial, Sans-serif">Created by Gan Khoon Lay</text><text x="0" y="256.16700000000003" fill="#000000" font-size="5px" font-weight="bold" font-family="'Helvetica Neue', Helvetica, Arial-Unicode, Arial, Sans-serif">from the Noun Project</text></svg>